<svg width="800" height="453" viewBox="0 0 800 453" version="1.1" xmlns="http://www.w3.org/2000/svg" ><path fill="rgb(0,0,0)" stroke="rgb(0,0,0)" stroke-width="0" d="M 57.5 6 L 68.5 6 L 72 9.5 L 73 18.5 L 69.5 24 Q 66 26.5 58.5 25 L 54 21.5 L 53 11.5 L 57.5 6 Z M 62 10 L 59 12 L 60 13 L 63 11 L 64 14 L 64 13 L 66 12 Q 65 9 62 10 Z M 67 12 L 67 16 L 68 16 L 67 12 Z M 59 13 L 58 18 Q 59 21 64 20 L 64 19 L 67 17 L 65 16 L 63 19 L 62 19 Q 58 18 59 13 Z " /><path fill="rgb(0,0,0)" stroke="rgb(0,0,0)" stroke-width="0" d="M 81.5 7 L 84.5 8 Q 85.75 5.75 87 8.5 L 87.5 12 L 90.5 7 L 91 8.5 L 88.5 15 L 86 13.5 L 84.5 9 L 81 9.5 L 84 11.5 L 82.5 15 L 79 14.5 L 79.5 13 L 82 12.5 L 79 10.5 L 81.5 7 Z " /><path fill="rgb(0,0,0)" stroke="rgb(0,0,0)" stroke-width="0" d="M 94.5 7 L 97 7.5 L 96.5 9 L 93 10.5 L 93.5 13 L 96 12.5 L 94 11.5 L 97.5 11 L 98 13.5 Q 97.25 15.75 93.5 15 Q 90.5 14.5 91 10.5 L 92.5 8 L 94.5 7 Z " /><path fill="rgb(0,0,0)" stroke="rgb(0,0,0)" stroke-width="0" d="M 126.5 7 L 129 7.5 L 128.5 9 L 125 10.5 L 125.5 12 L 134.5 10 L 135 12.5 L 133.5 15 L 129.5 14 L 125.5 15 Q 122.5 14.5 123 10.5 L 124.5 8 L 126.5 7 Z " /><path fill="rgb(0,0,0)" stroke="rgb(0,0,0)" stroke-width="0" d="M 659.5 7 L 722.5 7 L 724 8.5 Q 726.67 12.33 725 20.5 L 721.5 24 L 659.5 24 L 657 20.5 L 657 9.5 L 659.5 7 Z M 667 12 L 665 16 Q 667 19 668 16 L 667 12 Z M 677 12 L 674 15 L 675 18 L 687 18 L 688 16 Q 689 19 695 18 L 695 15 L 693 14 L 693 16 L 692 16 L 691 14 L 690 16 L 688 14 L 687 15 L 685 14 L 685 16 L 684 16 L 682 17 L 683 15 L 681 14 L 679 17 L 677 17 L 676 15 L 679 14 L 677 12 Z M 707 12 L 705 14 L 707 17 L 705 18 L 708 18 Q 711 16 707 15 L 708 13 L 707 12 Z M 717 12 L 713 13 L 712 16 L 711 15 L 709 14 L 710 18 L 712 18 L 714 14 L 714 17 L 718 18 Q 721 17 718 15 L 717 17 L 715 15 L 718 14 L 718 13 L 717 12 Z M 697 14 L 696 18 L 698 18 L 699 15 L 700 18 L 703 17 Q 702 13 697 14 Z M 665 18 L 665 19 L 670 19 L 665 18 Z " /><path fill="rgb(0,0,0)" stroke="rgb(0,0,0)" stroke-width="0" d="M 101.5 8 L 103 8.5 L 102.5 15 L 101 14.5 L 101.5 8 Z " /><path fill="rgb(0,0,0)" stroke="rgb(0,0,0)" stroke-width="0" d="M 157.5 8 L 159 10.5 L 158 12.5 L 159 14.5 L 157.5 15 L 156 9.5 L 157.5 8 Z " /><path fill="rgb(0,0,0)" stroke="rgb(0,0,0)" stroke-width="0" d="M 105.5 10 L 108 10.5 L 106 11.5 L 106.5 13 L 109 11.5 L 109.5 10 Q 113.25 9.25 114 11.5 L 112.5 15 L 108.5 13 L 107.5 15 L 104 13.5 L 105.5 10 Z M 112 11 L 111 13 L 112 13 L 112 11 Z " /><path fill="rgb(0,0,0)" stroke="rgb(0,0,0)" stroke-width="0" d="M 115.5 10 L 120 10.5 L 119.5 15 L 118 14.5 L 117.5 11 L 116.5 15 L 115 14.5 L 115.5 10 Z " /><path fill="rgb(0,0,0)" stroke="rgb(0,0,0)" stroke-width="0" d="M 136.5 10 L 141 10.5 L 141.5 12 L 142.5 10 L 146.5 11 L 149.5 10 L 149 11.5 L 148.5 15 L 147 14.5 L 146.5 12 L 145.5 15 L 141.5 13 L 140.5 15 L 139 14.5 L 138.5 11 L 137.5 15 L 136 14.5 L 136.5 10 Z " /><path fill="rgb(0,0,0)" stroke="rgb(0,0,0)" stroke-width="0" d="M 151.5 10 L 155 10.5 L 154.5 15 Q 150.75 15.75 150 13.5 Q 153.08 11.75 151.5 10 Z " /><path fill="rgb(0,0,0)" stroke="rgb(0,0,0)" stroke-width="0" d="M 160.5 10 L 165 10.5 Q 165.75 14.25 163.5 15 L 160 13.5 L 160.5 10 Z " /><path fill="rgb(0,0,0)" stroke="rgb(0,0,0)" stroke-width="0" d="M 166.5 10 L 170 10.5 L 168 11.5 L 167.5 15 L 166 14.5 L 166.5 10 Z " /><path fill="rgb(0,0,0)" stroke="rgb(0,0,0)" stroke-width="0" d="M 592.5 11 L 598 11.5 L 598.5 13 L 600 13.5 Q 601.25 18.75 598.5 20 Q 594.75 20.75 594 18.5 Q 593 14 595.5 13 L 597 12.5 L 593.5 12 L 592.5 17 L 592.5 11 Z M 597 14 L 595 18 L 599 18 L 599 15 L 597 14 Z " /><path fill="rgb(0,0,0)" stroke="rgb(0,0,0)" stroke-width="0" d="M 604.5 12 L 605.5 14 L 608 12.5 L 607 16.5 L 608 16.5 L 609.5 14 L 612.5 15 L 616.5 14 L 621 14.5 L 620.5 18 L 618 17.5 L 617.5 16 L 616.5 18 L 614.5 15 L 613.5 18 L 611.5 18 L 608.5 17 L 606.5 18 L 604 17.5 L 604.5 12 Z " /><path fill="rgb(0,0,0)" stroke="rgb(0,0,0)" stroke-width="0" d="M 622.5 14 L 626.5 15 L 629.5 14 L 631.5 14 L 635 14.5 L 635.5 16 L 637 15.5 L 636.5 14 Q 644.25 12.25 646 16.5 L 645.5 18 L 643 17.5 L 642.5 15 L 641 15.5 L 640.5 18 L 639.5 15 L 638.5 18 Q 632.25 19.75 630.5 17 L 627.5 18 L 625.5 18 L 622.5 20 L 622.5 14 Z " /><path fill="rgb(0,0,0)" stroke="rgb(0,0,0)" stroke-width="0" d="M 124.5 21 L 125.5 23 L 124.5 21 Z " /><path fill="rgb(0,0,0)" stroke="rgb(0,0,0)" stroke-width="0" d="M 206.5 21 L 209 24.5 L 207 25.5 Q 209.5 24 206 22.5 L 206.5 21 Z " /><path fill="rgb(0,0,0)" stroke="rgb(0,0,0)" stroke-width="0" d="M 80.5 22 L 82 24.5 L 80 23.5 L 80.5 22 Z " /><path fill="rgb(0,0,0)" stroke="rgb(0,0,0)" stroke-width="0" d="M 84.5 22 L 83.5 24 L 84.5 22 Z " /><path fill="rgb(0,0,0)" stroke="rgb(0,0,0)" stroke-width="0" d="M 92.5 22 L 93 23.5 L 91.5 24 L 92.5 22 Z " /><path fill="rgb(0,0,0)" stroke="rgb(0,0,0)" stroke-width="0" d="M 99.5 22 L 100.5 24 L 99.5 22 Z " /><path fill="rgb(0,0,0)" stroke="rgb(0,0,0)" stroke-width="0" d="M 105.5 22 L 107 24.5 Q 105.5 27.5 104 24.5 L 105.5 22 Z " /><path fill="rgb(0,0,0)" stroke="rgb(0,0,0)" stroke-width="0" d="M 116.5 22 L 118 24.5 L 116.5 25 L 116.5 22 Z " /><path fill="rgb(0,0,0)" stroke="rgb(0,0,0)" stroke-width="0" d="M 158.5 22 L 157.5 24 L 158.5 22 Z " /><path fill="rgb(0,0,0)" stroke="rgb(0,0,0)" stroke-width="0" d="M 182.5 22 L 181.5 24 L 182.5 22 Z " /><path fill="rgb(0,0,0)" stroke="rgb(0,0,0)" stroke-width="0" d="M 87.5 23 L 90 23.5 L 89.5 25 L 87.5 23 Z " /><path fill="rgb(0,0,0)" stroke="rgb(0,0,0)" stroke-width="0" d="M 94.5 23 L 97 23.5 L 95 24.5 L 95.5 26 L 94.5 23 Z " /><path fill="rgb(0,0,0)" stroke="rgb(0,0,0)" stroke-width="0" d="M 113.5 23 L 112.5 25 L 113.5 23 Z " /><path fill="rgb(0,0,0)" stroke="rgb(0,0,0)" stroke-width="0" d="M 142.5 23 L 144 25.5 L 142 24.5 L 142.5 23 Z " /><path fill="rgb(0,0,0)" stroke="rgb(0,0,0)" stroke-width="0" d="M 171.5 23 L 172.5 25 L 171 24.5 L 171.5 23 Z " /><path fill="rgb(0,0,0)" stroke="rgb(0,0,0)" stroke-width="0" d="M 188.5 23 L 190 23.5 L 189.5 26 L 188.5 23 Z " /><path fill="rgb(0,0,0)" stroke="rgb(0,0,0)" stroke-width="0" d="M 191.5 23 L 192.5 25 L 191.5 23 Z " /><path fill="rgb(0,0,0)" stroke="rgb(0,0,0)" stroke-width="0" d="M 202.5 23 L 201.5 25 L 202.5 23 Z " /><path fill="rgb(0,0,0)" stroke="rgb(0,0,0)" stroke-width="0" d="M 129.5 24 L 132 25.5 L 130.5 26 L 129.5 24 Z " /><path fill="rgb(0,0,0)" stroke="rgb(0,0,0)" stroke-width="0" d="M 108.5 25 L 111 25.5 L 108.5 26 L 108.5 25 Z " /><path fill="rgb(0,0,0)" stroke="rgb(0,0,0)" stroke-width="0" d="M 67.5 62 Q 73 61 74 64.5 Q 75 69 72.5 70 Q 68 71 67 68.5 L 67.5 62 Z M 69 63 L 69 69 L 71 68 L 70 67 L 69 66 L 71 65 L 71 64 L 69 63 Z M 72 65 L 71 67 L 73 67 L 73 66 L 72 65 Z " /><path fill="rgb(0,0,0)" stroke="rgb(0,0,0)" stroke-width="0" d="M 80.5 63 L 81.5 66 L 83.5 63 L 84 68.5 L 83 68.5 L 82.5 66 L 80.5 69 L 79 64.5 L 80.5 63 Z " /><path fill="rgb(0,0,0)" stroke="rgb(0,0,0)" stroke-width="0" d="M 131.5 63 L 133 63.5 L 133 65.5 L 131.5 69 L 130 68.5 L 129.5 67 L 126.5 69 L 125 65.5 L 127.5 65 L 128.5 66 L 131.5 63 Z M 127 66 L 126 68 L 128 67 L 127 66 Z M 131 66 L 132 68 L 132 67 L 131 66 Z " /><path fill="rgb(0,0,0)" stroke="rgb(0,0,0)" stroke-width="0" d="M 86.5 65 L 88 65.5 L 86 66.5 L 87.5 69 L 85 67.5 L 86.5 65 Z " /><path fill="rgb(0,0,0)" stroke="rgb(0,0,0)" stroke-width="0" d="M 89.5 65 L 93.5 65 L 97.5 67 L 98.5 65 L 100 65.5 L 101 69.5 L 99.5 69 L 97 68.5 L 96.5 67 L 94.5 69 L 91 66.5 L 92 68.5 L 89 68.5 L 90 66.5 L 89.5 65 Z " /><path fill="rgb(0,0,0)" stroke="rgb(0,0,0)" stroke-width="0" d="M 102.5 65 L 105 65.5 L 104.5 69 L 103.5 67 L 102 67.5 L 102.5 65 Z " /><path fill="rgb(0,0,0)" stroke="rgb(0,0,0)" stroke-width="0" d="M 106.5 65 L 110.5 66 L 113.5 65 L 114 66.5 L 112 66.5 L 113 68.5 L 111.5 69 L 110.5 67 L 107.5 69 Q 105 68 106.5 65 Z M 108 66 L 107 68 L 109 68 L 109 67 L 108 66 Z " /><path fill="rgb(0,0,0)" stroke="rgb(0,0,0)" stroke-width="0" d="M 117.5 65 L 119.5 65 L 121 65.5 L 120.5 68 L 117.5 69 L 117.5 65 Z " /><path fill="rgb(0,0,0)" stroke="rgb(0,0,0)" stroke-width="0" d="M 122.5 65 L 124 65.5 L 123.5 69 L 122 68.5 L 122 66.5 L 122.5 65 Z " /><path fill="rgb(0,0,0)" stroke="rgb(0,0,0)" stroke-width="0" d="M 134.5 65 L 139.5 67 L 139.5 65 L 142 66.5 L 142.5 68 L 143.5 65 L 147 65.5 L 147.5 68 L 149.5 65 L 151.5 66 L 153.5 65 L 156 65.5 L 155.5 69 L 154.5 67 L 152.5 68 L 150.5 67 L 150.5 69 L 148.5 68 L 146.5 68 L 142.5 69 L 140.5 69 L 137.5 68 L 134.5 70 L 134.5 65 Z M 136 66 L 135 68 L 137 67 L 136 66 Z " /><path fill="rgb(0,0,0)" stroke="rgb(0,0,0)" stroke-width="0" d="M 157.5 65 L 159.5 65 L 161.5 66 L 164.5 65 L 165 66.5 L 163 67.5 L 163.5 69 L 161.5 68 L 160 68.5 L 159.5 67 L 157 68.5 L 157.5 65 Z " /><path fill="rgb(0,0,0)" stroke="rgb(0,0,0)" stroke-width="0" d="M 627.5 65 L 632 67.5 L 631 70.5 L 632 72.5 L 630.5 72 Q 626 73 625 70.5 Q 624.25 65.75 627.5 65 Z M 628 67 L 628 68 L 630 68 L 628 67 Z M 627 68 L 626 70 L 630 71 L 631 69 L 629 70 L 627 68 Z " /><path fill="rgb(0,0,0)" stroke="rgb(0,0,0)" stroke-width="0" d="M 680.5 65 L 684 67.5 L 685 72.5 L 683.5 73 L 678 71.5 L 677 67.5 L 680.5 65 Z M 680 67 L 680 68 L 682 68 L 680 67 Z M 680 69 L 680 71 L 682 71 L 680 69 Z " /><path fill="rgb(0,0,0)" stroke="rgb(0,0,0)" stroke-width="0" d="M 702.5 65 L 707 68.5 Q 707.5 72.5 704.5 73 Q 699.75 73.75 699 70.5 L 699.5 69 L 703.5 72 Q 705.75 71.25 705 67.5 L 702.5 67 L 699.5 68 L 699 66.5 L 702.5 65 Z " /><path fill="rgb(0,0,0)" stroke="rgb(0,0,0)" stroke-width="0" d="M 297.5 66 Q 301.5 65.5 302 68.5 L 300.5 72 Q 295 73 294 69.5 L 295.5 67 L 297.5 66 Z M 297 68 Q 294 70 297 71 L 298 71 L 297 68 Z M 301 68 L 300 70 L 300 71 L 301 71 L 301 68 Z " /><path fill="rgb(0,0,0)" stroke="rgb(0,0,0)" stroke-width="0" d="M 308.5 66 L 312.5 69 L 314.5 68 L 315 69.5 L 313 69.5 L 314 71.5 L 312.5 72 L 311.5 69 L 309 70.5 L 308.5 72 L 308.5 66 Z " /><path fill="rgb(0,0,0)" stroke="rgb(0,0,0)" stroke-width="0" d="M 316.5 68 L 318 68.5 L 318.5 70 L 319.5 68 L 322 71.5 L 319 73.5 L 320 70.5 L 319 70.5 L 318.5 72 L 316 71.5 L 317 69.5 L 316.5 68 Z " /><path fill="rgb(0,0,0)" stroke="rgb(0,0,0)" stroke-width="0" d="M 324.5 68 L 326 68.5 L 325.5 72 L 324.5 70 L 323.5 72 L 323 70.5 L 324.5 68 Z " /><path fill="rgb(0,0,0)" stroke="rgb(0,0,0)" stroke-width="0" d="M 327.5 68 L 330 71.5 L 327.5 72 L 327.5 68 Z " /><path fill="rgb(0,0,0)" stroke="rgb(0,0,0)" stroke-width="0" d="M 331.5 68 L 333 68.5 L 332.5 72 L 331.5 68 Z " /><path fill="rgb(0,0,0)" stroke="rgb(0,0,0)" stroke-width="0" d="M 335.5 68 L 337 68.5 L 336.5 72 L 334 71.5 L 334.5 70 L 336 69.5 L 335.5 68 Z " /><path fill="rgb(0,0,0)" stroke="rgb(0,0,0)" stroke-width="0" d="M 338.5 68 L 341 68.5 L 339.5 72 L 338.5 68 Z " /><path fill="rgb(0,0,0)" stroke="rgb(0,0,0)" stroke-width="0" d="M 152.5 96 L 168.5 96 L 189.5 102 Q 204.37 109.13 214 121.5 Q 221.67 130.83 226 143.5 L 229 157.5 L 229 170.5 L 226 185.5 L 220 198.5 Q 213.75 209.25 204.5 217 Q 188.32 232.32 157.5 233 L 156.5 232 L 144.5 231 L 132.5 227 Q 118.52 220.48 109 209.5 Q 91.93 192.57 92 158.5 L 95 143.5 L 102 128.5 L 118.5 110 L 131.5 102 L 152.5 96 Z M 119 135 L 125 141 L 128 145 L 128 182 L 112 192 L 151 192 L 152 182 L 172 173 L 179 182 L 168 190 L 167 192 L 210 192 L 185 162 L 199 155 L 199 154 L 183 154 L 153 168 L 151 167 L 151 156 Q 152 153 157 154 L 164 149 L 153 148 L 151 146 L 153 144 L 164 144 L 158 138 Q 150 139 148 135 L 119 135 Z M 190 137 Q 180 138 176 144 L 164 146 L 171 147 L 186 147 Q 194 140 211 142 L 211 140 L 196 140 L 191 141 Q 189 143 188 141 Q 190 138 196 139 L 197 138 L 190 137 Z " /><path fill="rgb(0,0,0)" stroke="rgb(0,0,0)" stroke-width="0" d="M 356.5 107 L 357.5 109 L 360 110.5 L 357 112.5 L 358 110.5 L 356.5 110 L 354.5 114 L 353.5 112 L 351 110.5 L 353.5 109 L 354.5 112 L 356.5 107 Z " /><path fill="rgb(0,0,0)" stroke="rgb(0,0,0)" stroke-width="0" d="M 423.5 107 L 431 107.5 Q 432.5 113.5 429.5 115 Q 424.25 116.25 423 113.5 L 423.5 107 Z M 428 108 L 427 110 L 430 110 L 430 109 L 428 108 Z M 425 110 L 425 113 Q 428 112 425 110 Z M 429 111 L 427 113 L 430 113 L 429 111 Z " /><path fill="rgb(0,0,0)" stroke="rgb(0,0,0)" stroke-width="0" d="M 302.5 108 Q 307.75 106.75 309 109.5 Q 309.5 113.5 306.5 114 Q 301.75 114.75 301 111.5 L 302.5 108 Z M 303 110 L 302 112 L 304 112 L 303 110 Z " /><path fill="rgb(0,0,0)" stroke="rgb(0,0,0)" stroke-width="0" d="M 313.5 108 L 318 108.5 L 317.5 113 L 316.5 109 L 315 109.5 L 314.5 113 L 313 112.5 L 313.5 108 Z " /><path fill="rgb(0,0,0)" stroke="rgb(0,0,0)" stroke-width="0" d="M 364.5 108 L 368.5 110 L 370.5 109 L 373 110.5 L 373.5 109 L 376 110.5 L 376.5 112 L 377.5 109 L 382.5 110 L 386.5 109 L 388.5 110 L 390.5 109 L 391.5 111 L 394.5 109 L 396 112.5 L 392.5 115 L 391.5 112 L 389.5 114 Q 388 110.5 386.5 113 L 385 112.5 L 384.5 110 Q 381.75 111.25 384 112.5 L 383.5 114 L 379.5 113 L 377.5 114 L 376 113.5 L 375.5 115 Q 374.25 112.75 369.5 114 L 368 112.5 L 367.5 111 L 365 112.5 L 364.5 114 L 364.5 108 Z " /><path fill="rgb(0,0,0)" stroke="rgb(0,0,0)" stroke-width="0" d="M 399.5 108 Q 404 107 405 109.5 L 405.5 111 L 406.5 108 L 408.5 109 L 411.5 108 L 411.5 109 L 409 109.5 L 409.5 112 L 411 111.5 L 410.5 110 L 413 111.5 L 411.5 114 L 408 112.5 L 407.5 111 L 405.5 114 L 403.5 111 L 402.5 113 L 399.5 114 L 399 112.5 L 401 111.5 L 399 110.5 L 399.5 108 Z M 401 109 L 403 111 L 403 110 L 401 109 Z " /><path fill="rgb(0,0,0)" stroke="rgb(0,0,0)" stroke-width="0" d="M 436.5 108 L 439 108.5 L 436 110.5 L 436.5 112 L 439 112.5 L 438.5 114 L 435 112.5 Q 434.25 108.75 436.5 108 Z " /><path fill="rgb(0,0,0)" stroke="rgb(0,0,0)" stroke-width="0" d="M 320.5 109 L 323.5 110 L 325.5 109 L 327.5 110 L 329.5 109 L 334.5 111 L 336.5 110 Q 338 112.5 339.5 109 L 342 111.5 L 339.5 114 Q 338 110.5 336.5 113 L 332.5 114 L 330.5 113 L 328.5 114 L 326 112.5 L 325.5 114 L 322.5 113 L 319.5 115 L 319 110.5 L 320.5 109 Z " /><path fill="rgb(0,0,0)" stroke="rgb(0,0,0)" stroke-width="0" d="M 440.5 109 L 444 110.5 L 444.5 112 L 445.5 109 L 447.5 110 L 450.5 109 L 454.5 111 L 455.5 109 L 456.5 111 Q 458 107.5 459.5 110 L 461.5 109 L 462.5 111 L 466.5 110 L 468 110.5 L 468.5 109 L 469.5 111 L 472.5 109 L 474 111.5 L 472.5 114 L 467.5 112 L 466.5 114 L 462.5 112 L 461.5 114 L 460.5 112 L 459.5 114 L 456.5 112 L 455.5 114 L 454.5 112 L 449.5 114 L 447.5 113 L 445.5 114 L 443.5 113 L 440.5 115 L 440.5 109 Z " /><path fill="rgb(0,0,0)" stroke="rgb(0,0,0)" stroke-width="0" d="M 352.5 134 L 645.5 134 L 650 138.5 L 660 151.5 L 660.5 154 L 662 154.5 L 668.5 166 L 670 166.5 L 675 176.5 L 676 181.5 L 680 186.5 L 680 189.5 L 686 203.5 L 686 207.5 L 688 209.5 Q 687.33 215.17 690 217.5 L 690 219.5 L 694 239.5 L 695 276.5 L 694 277.5 L 693 297.5 L 689 310.5 L 689 312.5 L 688 319.5 L 686 321.5 L 686 325.5 L 683 330.5 L 678 345.5 L 671 359.5 L 668 362.5 L 667 366.5 L 651.5 388 L 650 388.5 L 644.5 396 L 353.5 396 L 350 392.5 L 343.5 383 L 341 381.5 L 329 363.5 L 319 343.5 L 309 314.5 L 309 312.5 L 306 302.5 L 305 288.5 L 303 281.5 L 303 245.5 L 305 240.5 L 305 232.5 L 308 222.5 L 308 217.5 L 310 214.5 L 310 212.5 L 313 200.5 L 315 198.5 L 314 196.5 L 333 158.5 Q 341.25 144.75 352.5 134 Z M 379 180 L 376 182 L 389 192 L 389 194 L 401 203 L 403 203 L 406 209 L 406 311 L 405 314 L 365 339 L 361 343 L 363 344 L 470 344 L 473 342 L 472 340 L 473 339 L 473 317 L 474 315 L 483 309 L 488 308 Q 496 302 508 299 L 525 290 L 530 289 L 550 312 L 551 315 L 550 317 L 515 342 L 517 344 L 640 344 L 641 343 L 641 341 L 632 330 L 585 277 L 585 275 Q 576 267 570 257 L 576 252 L 607 239 Q 612 237 607 234 L 565 234 L 548 243 L 538 246 L 530 251 L 514 257 L 502 264 L 497 265 L 480 273 L 478 275 L 475 275 L 472 270 L 473 269 L 473 237 L 476 234 L 488 234 L 501 224 L 503 224 L 508 218 L 507 216 L 475 216 L 473 214 L 474 207 L 508 206 L 509 204 L 488 188 L 474 188 L 465 184 L 464 183 L 459 180 L 379 180 Z M 579 187 L 561 192 L 551 202 L 545 205 L 530 208 L 521 208 Q 518 211 512 210 L 510 212 L 513 213 L 537 214 L 539 214 L 543 216 L 561 216 L 565 214 L 567 215 L 574 213 L 586 206 L 600 203 L 603 201 L 616 201 L 617 200 Q 627 201 635 199 L 637 199 L 641 200 Q 642 197 649 198 L 649 197 L 648 197 Q 642 198 640 195 L 597 195 L 595 197 L 580 198 L 579 197 L 584 193 L 588 193 L 597 190 L 605 190 L 606 189 L 603 187 L 579 187 Z " /><path fill="rgb(0,0,0)" stroke="rgb(0,0,0)" stroke-width="0" d="M 67.5 244 L 68.5 247 L 69.5 245 L 73.5 247 L 74.5 245 L 77.5 246 L 79 245.5 L 78 247.5 L 78.5 249 L 74.5 247 L 73.5 249 L 71 247.5 L 70.5 249 L 67.5 247 L 66 247.5 L 67.5 244 Z " /><path fill="rgb(0,0,0)" stroke="rgb(0,0,0)" stroke-width="0" d="M 81.5 245 L 83.5 246 L 86.5 245 L 87 247.5 L 86 247.5 L 85.5 246 L 84.5 249 L 82.5 248 Q 81.25 250.25 80 247.5 L 81.5 245 Z " /><path fill="rgb(0,0,0)" stroke="rgb(0,0,0)" stroke-width="0" d="M 85.5 253 L 86.5 255 L 85 254.5 L 84.5 258 L 84 254.5 L 85.5 253 Z " /><path fill="rgb(0,0,0)" stroke="rgb(0,0,0)" stroke-width="0" d="M 80.5 254 L 83 257.5 L 80 257.5 L 80.5 254 Z " /><path fill="rgb(0,0,0)" stroke="rgb(0,0,0)" stroke-width="0" d="M 77.5 255 L 76.5 257 L 77.5 255 Z " /><path fill="rgb(0,0,0)" stroke="rgb(0,0,0)" stroke-width="0" d="M 68.5 299 L 73 300.5 L 67.5 302 L 67 300.5 L 68.5 299 Z " /><path fill="rgb(0,0,0)" stroke="rgb(0,0,0)" stroke-width="0" d="M 79.5 300 L 81 300.5 L 81.5 302 L 83 301.5 L 83.5 300 L 84 304.5 L 83 304.5 L 82.5 303 L 81 303.5 L 80.5 305 L 79 304.5 L 80 301.5 L 79.5 300 Z " /><path fill="rgb(0,0,0)" stroke="rgb(0,0,0)" stroke-width="0" d="M 227.5 300 L 229 300.5 L 227 303.5 L 229 304.5 L 228.5 306 L 226 304.5 Q 225.25 300.75 227.5 300 Z " /><path fill="rgb(0,0,0)" stroke="rgb(0,0,0)" stroke-width="0" d="M 86.5 301 L 88.5 303 L 91 301.5 L 90 303.5 L 90.5 305 L 88.5 304 L 85.5 305 L 86.5 301 Z " /><path fill="rgb(0,0,0)" stroke="rgb(0,0,0)" stroke-width="0" d="M 93.5 301 L 95 301.5 L 94 303.5 L 94.5 305 L 93 304.5 L 93.5 301 Z " /><path fill="rgb(0,0,0)" stroke="rgb(0,0,0)" stroke-width="0" d="M 98.5 301 L 100.5 303 L 102.5 301 L 104.5 303 L 107.5 302 L 109 302.5 L 108.5 305 L 106.5 305 L 104.5 304 L 101.5 305 L 99.5 305 L 97 305.5 L 96.5 307 L 96 302.5 L 97 302.5 L 97.5 304 L 99 303.5 L 98.5 301 Z " /><path fill="rgb(0,0,0)" stroke="rgb(0,0,0)" stroke-width="0" d="M 112.5 301 L 112 302.5 L 113 304.5 L 110.5 305 L 110 302.5 L 112.5 301 Z " /><path fill="rgb(0,0,0)" stroke="rgb(0,0,0)" stroke-width="0" d="M 116.5 301 L 117 304.5 L 114 304.5 L 114.5 302 L 116 302.5 L 116.5 301 Z " /><path fill="rgb(0,0,0)" stroke="rgb(0,0,0)" stroke-width="0" d="M 125.5 301 L 128 302.5 L 127.5 305 L 124 303.5 L 125.5 301 Z M 127 302 L 126 304 L 127 304 L 127 302 Z " /><path fill="rgb(0,0,0)" stroke="rgb(0,0,0)" stroke-width="0" d="M 134.5 301 L 137.5 303 Q 139.25 299.25 141 302.5 L 140.5 304 L 138.5 305 L 136.5 305 L 133 304.5 L 134.5 301 Z " /><path fill="rgb(0,0,0)" stroke="rgb(0,0,0)" stroke-width="0" d="M 143.5 301 Q 148 303 144.5 305 L 143 305.5 L 142.5 307 L 142 302.5 L 143.5 301 Z " /><path fill="rgb(0,0,0)" stroke="rgb(0,0,0)" stroke-width="0" d="M 146.5 301 L 148 301.5 L 147.5 305 L 146.5 301 Z " /><path fill="rgb(0,0,0)" stroke="rgb(0,0,0)" stroke-width="0" d="M 150.5 301 L 152 301.5 L 152.5 303 L 154 302.5 L 154.5 304 L 156 303.5 L 156.5 302 L 157.5 305 L 158.5 302 L 160.5 302 L 162 302.5 L 161.5 305 L 159.5 305 L 156.5 306 L 149 304.5 Q 152.08 302.75 150.5 301 Z " /><path fill="rgb(0,0,0)" stroke="rgb(0,0,0)" stroke-width="0" d="M 120.5 302 L 123 302.5 L 122.5 305 L 120 304.5 L 120.5 302 Z " /><path fill="rgb(0,0,0)" stroke="rgb(0,0,0)" stroke-width="0" d="M 129.5 302 L 132 302.5 L 131.5 305 L 129 304.5 L 129.5 302 Z " /><path fill="rgb(0,0,0)" stroke="rgb(0,0,0)" stroke-width="0" d="M 163.5 302 L 165.5 302 L 167 302.5 L 166.5 305 L 164.5 304 L 163 304.5 L 163.5 302 Z " /><path fill="rgb(0,0,0)" stroke="rgb(0,0,0)" stroke-width="0" d="M 230.5 302 Q 237.33 300.67 240.5 303 Q 241.75 300.75 246.5 302 L 248 304.5 Q 246.5 307.5 245 304.5 L 244.5 303 L 243.5 305 L 242.5 303 L 241.5 305 L 238.5 306 L 235.5 305 L 234.5 307 L 233 306.5 L 232.5 305 L 230 304.5 L 230.5 302 Z " /><path fill="rgb(0,0,0)" stroke="rgb(0,0,0)" stroke-width="0" d="M 71.5 303 L 74 303.5 L 72.5 306 L 68 304.5 L 71.5 303 Z " /><path fill="rgb(0,0,0)" stroke="rgb(0,0,0)" stroke-width="0" d="M 66.5 336 L 70 336.5 L 70.5 338 L 72.5 337 L 74 340.5 Q 71.75 344.25 69.5 339 L 68 339.5 L 67.5 341 L 66 340.5 L 66.5 336 Z " /><path fill="rgb(0,0,0)" stroke="rgb(0,0,0)" stroke-width="0" d="M 75.5 337 L 80 337.5 L 79 339.5 L 79.5 341 L 75 340.5 L 75.5 337 Z " /><path fill="rgb(0,0,0)" stroke="rgb(0,0,0)" stroke-width="0" d="M 81.5 337 L 82.5 339 L 83.5 337 L 85.5 337 L 87 337.5 L 87.5 339 L 90 337.5 L 89.5 341 Q 84 342.5 82.5 340 L 81 340.5 L 81.5 337 Z " /><path fill="rgb(0,0,0)" stroke="rgb(0,0,0)" stroke-width="0" d="M 93.5 337 L 96 337.5 L 95 339.5 L 95.5 341 L 93 340.5 L 93.5 337 Z " /><path fill="rgb(0,0,0)" stroke="rgb(0,0,0)" stroke-width="0" d="M 98.5 337 L 103.5 339 L 104.5 337 L 105 340.5 L 102.5 341 L 100.5 340 Q 98.75 343.75 97 340.5 L 98.5 337 Z " /><path fill="rgb(0,0,0)" stroke="rgb(0,0,0)" stroke-width="0" d="M 106.5 337 L 109 337.5 Q 109.75 341.25 107.5 342 Q 104.81 340.81 106.5 337 Z " /><path fill="rgb(0,0,0)" stroke="rgb(0,0,0)" stroke-width="0" d="M 111.5 337 L 113.5 338 L 116.5 337 L 118 340.5 L 114.5 343 L 113.5 340 L 112.5 342 L 110 340.5 L 111.5 337 Z " /><path fill="rgb(0,0,0)" stroke="rgb(0,0,0)" stroke-width="0" d="M 119.5 337 L 121 337.5 L 120.5 341 L 119 340.5 L 119.5 337 Z " /><path fill="rgb(0,0,0)" stroke="rgb(0,0,0)" stroke-width="0" d="M 122.5 337 L 125 337.5 L 124.5 341 L 122 340.5 L 123 338.5 L 122.5 337 Z " /><path fill="rgb(0,0,0)" stroke="rgb(0,0,0)" stroke-width="0" d="M 126.5 337 L 127.5 340 L 128.5 338 L 130 338.5 L 130.5 341 L 131.5 337 L 132.5 339 L 133.5 337 L 134.5 340 L 135.5 338 L 138.5 337 L 139 340.5 L 136.5 341 L 132.5 340 L 129.5 342 L 126 340.5 L 126.5 337 Z " /><path fill="rgb(0,0,0)" stroke="rgb(0,0,0)" stroke-width="0" d="M 202.5 348 L 247 348.5 L 202.5 349 L 202.5 348 Z " /><path fill="rgb(0,0,0)" stroke="rgb(0,0,0)" stroke-width="0" d="M 199.5 349 L 198.5 351 L 197 351.5 L 196 353.5 L 196 378.5 L 199.5 382 L 249.5 382 L 253 379.5 L 253.5 378 L 254 379.5 L 249.5 383 L 199.5 383 L 195 378.5 L 195 353.5 L 197.5 350 L 199.5 349 Z " /><path fill="rgb(0,0,0)" stroke="rgb(0,0,0)" stroke-width="0" d="M 249.5 349 L 254 352.5 L 253.5 354 L 250.5 350 L 249.5 349 Z " /><path fill="rgb(0,0,0)" stroke="rgb(0,0,0)" stroke-width="0" d="M 254.5 355 L 255 376.5 L 254 376.5 L 254.5 355 Z " /><path fill="rgb(0,0,0)" stroke="rgb(0,0,0)" stroke-width="0" d="M 224.5 357 L 229 360.5 L 226 361.5 L 224.5 364 L 222.5 361 L 221 360.5 L 224 358.5 L 224.5 357 Z M 225 359 Q 222 361 225 362 L 226 360 L 225 359 Z " /><path fill="rgb(0,0,0)" stroke="rgb(0,0,0)" stroke-width="0" d="M 98.5 360 L 99.5 362 L 98.5 360 Z " /><path fill="rgb(0,0,0)" stroke="rgb(0,0,0)" stroke-width="0" d="M 96.5 362 L 97.5 364 L 96.5 362 Z " /><path fill="rgb(0,0,0)" stroke="rgb(0,0,0)" stroke-width="0" d="M 85.5 369 L 86.5 371 L 89 369.5 L 88.5 374 L 87.5 372 L 85 373.5 L 85.5 369 Z " /><path fill="rgb(0,0,0)" stroke="rgb(0,0,0)" stroke-width="0" d="M 150.5 369 L 154 369.5 L 153.5 374 L 152.5 370 L 151 370.5 L 150.5 374 L 150.5 369 Z " /><path fill="rgb(0,0,0)" stroke="rgb(0,0,0)" stroke-width="0" d="M 210.5 369 L 213 369.5 L 212.5 375 L 210.5 374 L 209 374.5 L 210.5 369 Z M 212 370 L 211 372 L 211 373 L 212 373 L 212 370 Z " /><path fill="rgb(0,0,0)" stroke="rgb(0,0,0)" stroke-width="0" d="M 90.5 371 L 92 371.5 L 92.5 373 L 93.5 371 L 96.5 372 L 100 371.5 L 99.5 374 L 95.5 374 L 93.5 373 L 90.5 374 L 90.5 371 Z " /><path fill="rgb(0,0,0)" stroke="rgb(0,0,0)" stroke-width="0" d="M 101.5 371 L 103 371.5 L 103.5 373 L 106.5 371 L 107 373.5 L 101.5 374 L 101.5 371 Z " /><path fill="rgb(0,0,0)" stroke="rgb(0,0,0)" stroke-width="0" d="M 156.5 371 L 158.5 372 L 160.5 371 L 161 373.5 L 157.5 374 L 156.5 372 L 155.5 374 L 155 372.5 L 156.5 371 Z " /><path fill="rgb(0,0,0)" stroke="rgb(0,0,0)" stroke-width="0" d="M 162.5 371 L 164 371.5 L 164.5 373 L 167.5 371 L 168 373.5 L 162.5 374 L 162.5 371 Z " /><path fill="rgb(0,0,0)" stroke="rgb(0,0,0)" stroke-width="0" d="M 169.5 371 L 171 371.5 L 169.5 374 L 169.5 371 Z " /><path fill="rgb(0,0,0)" stroke="rgb(0,0,0)" stroke-width="0" d="M 214.5 371 L 217 371.5 L 215 372.5 L 215.5 374 L 214 373.5 L 214.5 371 Z " /><path fill="rgb(0,0,0)" stroke="rgb(0,0,0)" stroke-width="0" d="M 218.5 371 L 219 373.5 L 218 373.5 L 218.5 371 Z " /><path fill="rgb(0,0,0)" stroke="rgb(0,0,0)" stroke-width="0" d="M 221.5 371 L 223 371.5 L 223.5 373 L 224.5 371 L 226 371.5 Q 225.25 374.75 220.5 374 L 220 372.5 L 221.5 371 Z " /><path fill="rgb(0,0,0)" stroke="rgb(0,0,0)" stroke-width="0" d="M 227.5 371 L 230.5 372 L 235.5 371 L 237 371.5 L 236.5 374 L 230.5 373 L 227.5 374 L 227.5 371 Z " /><path fill="rgb(0,0,0)" stroke="rgb(0,0,0)" stroke-width="0" d="M 238.5 371 L 241 371.5 L 240.5 374 L 238 373.5 L 238.5 371 Z " /><path fill="rgb(0,0,0)" stroke="rgb(0,0,0)" stroke-width="0" d="M 705.5 390 L 707.5 391 L 709 390.5 L 707.5 393 L 705 391.5 L 705.5 390 Z " /><path fill="rgb(0,0,0)" stroke="rgb(0,0,0)" stroke-width="0" d="M 73.5 391 L 75 393.5 Q 73.5 396.5 72 393.5 L 73.5 391 Z " /><path fill="rgb(0,0,0)" stroke="rgb(0,0,0)" stroke-width="0" d="M 91.5 391 L 93 393.5 Q 91.5 396.5 90 393.5 L 91.5 391 Z " /><path fill="rgb(0,0,0)" stroke="rgb(0,0,0)" stroke-width="0" d="M 108.5 391 L 110 393.5 L 108.5 394 L 108.5 391 Z " /><path fill="rgb(0,0,0)" stroke="rgb(0,0,0)" stroke-width="0" d="M 120.5 391 L 121 393.5 L 120 393.5 L 120.5 391 Z " /><path fill="rgb(0,0,0)" stroke="rgb(0,0,0)" stroke-width="0" d="M 163.5 391 L 164 393.5 L 163 393.5 L 163.5 391 Z " /><path fill="rgb(0,0,0)" stroke="rgb(0,0,0)" stroke-width="0" d="M 97.5 392 L 99 392.5 L 98.5 395 L 97.5 392 Z " /><path fill="rgb(0,0,0)" stroke="rgb(0,0,0)" stroke-width="0" d="M 100.5 392 L 103 392.5 L 100.5 393 L 100.5 392 Z " /><path fill="rgb(0,0,0)" stroke="rgb(0,0,0)" stroke-width="0" d="M 105.5 392 Q 108.5 393.5 105.5 395 L 105.5 392 Z " /><path fill="rgb(0,0,0)" stroke="rgb(0,0,0)" stroke-width="0" d="M 116.5 392 L 119 392.5 L 117 393.5 L 117.5 395 L 116.5 392 Z " /><path fill="rgb(0,0,0)" stroke="rgb(0,0,0)" stroke-width="0" d="M 123.5 392 L 125 392.5 L 123.5 395 Q 120.5 393.5 123.5 392 Z " /><path fill="rgb(0,0,0)" stroke="rgb(0,0,0)" stroke-width="0" d="M 159.5 392 L 162 392.5 L 160 393.5 L 160.5 395 L 159.5 392 Z " /><path fill="rgb(0,0,0)" stroke="rgb(0,0,0)" stroke-width="0" d="M 166.5 392 L 168 392.5 L 166.5 395 Q 163.5 393.5 166.5 392 Z " /><path fill="rgb(0,0,0)" stroke="rgb(0,0,0)" stroke-width="0" d="M 202.5 392 L 204 394.5 L 202 395.5 L 202.5 392 Z " /><path fill="rgb(0,0,0)" stroke="rgb(0,0,0)" stroke-width="0" d="M 207.5 392 Q 210.5 393.5 207.5 395 L 207.5 392 Z " /><path fill="rgb(0,0,0)" stroke="rgb(0,0,0)" stroke-width="0" d="M 219.5 392 L 218.5 394 L 219.5 392 Z " /><path fill="rgb(0,0,0)" stroke="rgb(0,0,0)" stroke-width="0" d="M 225.5 392 L 224.5 394 L 225.5 392 Z " /><path fill="rgb(0,0,0)" stroke="rgb(0,0,0)" stroke-width="0" d="M 141.5 393 L 142 394.5 L 140.5 395 L 141.5 393 Z " /><path fill="rgb(0,0,0)" stroke="rgb(0,0,0)" stroke-width="0" d="M 112.5 394 L 115 394.5 L 112.5 395 L 112.5 394 Z " /><path fill="rgb(0,0,0)" stroke="rgb(0,0,0)" stroke-width="0" d="M 152.5 394 L 155 394.5 L 152.5 395 L 152.5 394 Z " /><path fill="rgb(0,0,0)" stroke="rgb(0,0,0)" stroke-width="0" d="M 106.5 399 L 107.5 401 L 104.5 402 L 102 400.5 L 103.5 400 Q 105 402.5 106.5 399 Z " /><path fill="rgb(0,0,0)" stroke="rgb(0,0,0)" stroke-width="0" d="M 67.5 400 L 67 401.5 L 66.5 403 L 66 401.5 L 67.5 400 Z " /><path fill="rgb(0,0,0)" stroke="rgb(0,0,0)" stroke-width="0" d="M 73.5 400 L 76 401.5 L 74.5 401 L 73.5 400 Z " /><path fill="rgb(0,0,0)" stroke="rgb(0,0,0)" stroke-width="0" d="M 109.5 400 L 112 400.5 L 110 401.5 L 109.5 404 L 109.5 400 Z " /><path fill="rgb(0,0,0)" stroke="rgb(0,0,0)" stroke-width="0" d="M 114.5 400 L 115 401.5 L 113 402.5 L 114.5 400 Z " /><path fill="rgb(0,0,0)" stroke="rgb(0,0,0)" stroke-width="0" d="M 122.5 400 L 122 401.5 L 121.5 403 L 121 401.5 L 122.5 400 Z " /><path fill="rgb(0,0,0)" stroke="rgb(0,0,0)" stroke-width="0" d="M 78.5 401 L 80 401.5 L 79.5 403 L 78 402.5 L 78.5 401 Z " /><path fill="rgb(0,0,0)" stroke="rgb(0,0,0)" stroke-width="0" d="M 86.5 401 L 89 402.5 L 87.5 403 L 86.5 401 Z " /><path fill="rgb(0,0,0)" stroke="rgb(0,0,0)" stroke-width="0" d="M 96.5 401 L 95.5 403 L 96.5 401 Z " /><path fill="rgb(0,0,0)" stroke="rgb(0,0,0)" stroke-width="0" d="M 117.5 401 L 119 401.5 L 118.5 403 L 117 402.5 L 117.5 401 Z " /><path fill="rgb(0,0,0)" stroke="rgb(0,0,0)" stroke-width="0" d="M 130.5 401 L 129.5 403 L 130.5 401 Z " /><path fill="rgb(0,0,0)" stroke="rgb(0,0,0)" stroke-width="0" d="M 301.5 406 L 303 406.5 L 303.5 411 L 305.5 408 L 310 408.5 L 308.5 412 L 307.5 409 L 306.5 412 L 304.5 411 L 303.5 413 L 300.5 412 L 299 412.5 L 301.5 406 Z M 302 408 L 301 411 L 302 411 L 302 408 Z " /><path fill="rgb(0,0,0)" stroke="rgb(0,0,0)" stroke-width="0" d="M 350.5 407 L 351 408.5 L 350.5 410 L 352 410.5 L 350.5 411 Q 347.75 409.75 350 408.5 L 350.5 407 Z " /><path fill="rgb(0,0,0)" stroke="rgb(0,0,0)" stroke-width="0" d="M 404.5 407 L 405.5 409 L 407 408.5 L 406.5 410 L 404 408.5 L 404.5 407 Z " /><path fill="rgb(0,0,0)" stroke="rgb(0,0,0)" stroke-width="0" d="M 311.5 408 L 313 408.5 L 313.5 411 L 315.5 408 L 317.5 409 L 318.5 408 L 321 409.5 L 321.5 408 L 324 408.5 L 324.5 410 L 325.5 408 L 328.5 409 L 330.5 408 L 331 411.5 L 328.5 410 L 326.5 412 L 324.5 411 L 323 411.5 L 322.5 410 L 321.5 412 L 319.5 412 L 317.5 411 L 314.5 412 Q 310.75 412.75 310 410.5 L 311.5 408 Z " /><path fill="rgb(0,0,0)" stroke="rgb(0,0,0)" stroke-width="0" d="M 372.5 408 L 374 410.5 L 372 411.5 L 373 409.5 L 372.5 408 Z " /><path fill="rgb(0,0,0)" stroke="rgb(0,0,0)" stroke-width="0" d="M 392.5 408 L 394 408.5 L 393 410.5 L 393.5 412 Q 391 411 392.5 408 Z " /><path fill="rgb(0,0,0)" stroke="rgb(0,0,0)" stroke-width="0" d="M 396.5 408 L 395.5 410 L 396.5 408 Z " /><path fill="rgb(0,0,0)" stroke="rgb(0,0,0)" stroke-width="0" d="M 410.5 408 L 412 410.5 L 410 409.5 L 410.5 408 Z " /><path fill="rgb(0,0,0)" stroke="rgb(0,0,0)" stroke-width="0" d="M 429.5 408 L 431 408.5 L 429 409.5 L 429.5 408 Z " /><path fill="rgb(0,0,0)" stroke="rgb(0,0,0)" stroke-width="0" d="M 436.5 408 L 439 409.5 L 437.5 412 Q 435 411 436.5 408 Z " /><path fill="rgb(0,0,0)" stroke="rgb(0,0,0)" stroke-width="0" d="M 448.5 408 L 450 408.5 L 449.5 410 L 448.5 408 Z " /><path fill="rgb(0,0,0)" stroke="rgb(0,0,0)" stroke-width="0" d="M 452.5 408 L 453.5 410 L 452 410.5 L 452.5 412 L 451 409.5 L 452.5 408 Z " /><path fill="rgb(0,0,0)" stroke="rgb(0,0,0)" stroke-width="0" d="M 413.5 409 L 415 411.5 L 413 410.5 L 413.5 409 Z " /><path fill="rgb(0,0,0)" stroke="rgb(0,0,0)" stroke-width="0" d="M 456.5 409 L 455.5 411 L 456.5 409 Z " /><path fill="rgb(0,0,0)" stroke="rgb(0,0,0)" stroke-width="0" d="M 354.5 410 L 353.5 412 L 354.5 410 Z " /><path fill="rgb(0,0,0)" stroke="rgb(0,0,0)" stroke-width="0" d="M 233.5 430 L 245.5 430 L 248 432.5 Q 249.25 438.75 245.5 440 L 233.5 440 L 231 437.5 Q 229.75 431.25 233.5 430 Z M 242 431 L 239 434 Q 238 438 242 439 L 247 438 L 247 433 L 242 431 Z " /><path fill="rgb(0,0,0)" stroke="rgb(0,0,0)" stroke-width="0" d="M 77.5 431 L 81 435.5 Q 77.92 437.25 79.5 439 Q 74 440 73 436.5 L 77.5 431 Z M 78 432 Q 73 435 78 437 L 80 436 L 78 432 Z M 75 435 L 74 437 L 77 438 L 75 435 Z " /><path fill="rgb(0,0,0)" stroke="rgb(0,0,0)" stroke-width="0" d="M 86.5 432 L 87.5 434 L 90 432.5 L 90.5 434 L 93 434.5 L 93.5 437 L 94.5 434 L 97 434.5 L 97.5 437 L 99.5 434 L 101 434.5 L 101.5 436 L 102.5 434 L 104.5 434 L 106 434.5 L 105.5 438 L 104.5 436 L 103.5 438 L 101.5 437 L 98.5 438 L 93.5 439 L 90.5 438 L 89 438.5 L 90 434.5 L 89 434.5 L 87.5 438 L 86 437.5 L 87 435.5 L 86.5 432 Z " /><path fill="rgb(0,0,0)" stroke="rgb(0,0,0)" stroke-width="0" d="M 118.5 432 L 119.5 434 L 121.5 435 L 124.5 434 L 126.5 434 L 128.5 435 L 130 434.5 L 129.5 438 L 128.5 436 L 127.5 438 L 125.5 437 L 122.5 438 L 120.5 437 Q 118.25 441.25 116 436.5 L 116.5 434 L 118 433.5 L 118.5 432 Z " /><path fill="rgb(0,0,0)" stroke="rgb(0,0,0)" stroke-width="0" d="M 107.5 434 Q 112.62 433.37 114 436.5 L 110.5 438 L 109.5 435 L 108.5 438 L 107 437.5 L 107.5 434 Z " /><path fill="rgb(255,255,255)" stroke="rgb(255,255,255)" stroke-width="0" d="M 0.5 0 L 800 0.5 L 799.5 453 L 0 452.5 L 0.5 0 Z M 58 6 L 53 12 L 54 22 L 59 25 Q 66 27 70 24 L 73 19 L 72 10 L 69 6 L 58 6 Z M 82 7 L 79 11 L 82 13 L 80 13 L 79 15 L 83 15 L 84 12 L 81 10 L 85 9 L 86 14 L 89 15 L 91 9 L 91 7 L 88 12 L 87 9 Q 86 6 85 8 L 82 7 Z M 95 7 L 93 8 L 91 11 Q 91 15 94 15 Q 97 16 98 14 L 98 11 L 94 12 L 96 13 L 94 13 L 93 11 L 97 9 L 97 8 L 95 7 Z M 127 7 L 125 8 L 123 11 Q 123 15 126 15 L 130 14 L 134 15 L 135 13 L 135 10 L 126 12 L 128 13 L 127 13 L 125 11 L 129 9 L 129 8 L 127 7 Z M 660 7 L 657 10 L 657 21 L 660 24 L 722 24 L 725 21 Q 727 12 724 9 L 723 7 L 660 7 Z M 102 8 L 101 15 L 103 15 L 103 9 L 102 8 Z M 158 8 L 156 10 L 158 15 L 159 15 L 158 13 L 159 11 L 158 8 Z M 106 10 L 104 14 L 108 15 L 108 14 L 107 13 L 106 12 L 108 11 L 106 10 Z M 110 10 L 108 13 Q 108 16 113 15 L 114 12 Q 113 9 110 10 Z M 116 10 L 115 15 L 117 15 L 118 11 L 118 15 L 120 15 L 120 11 L 116 10 Z M 137 10 L 136 15 L 138 15 L 139 11 L 139 15 L 141 15 L 142 13 L 146 15 L 147 12 L 147 15 L 149 15 L 149 12 L 150 10 L 147 11 L 143 10 L 142 12 L 141 11 L 137 10 Z M 152 10 Q 153 12 150 14 Q 151 16 155 15 L 155 11 L 152 10 Z M 161 10 L 160 14 L 164 15 Q 166 14 165 11 L 161 10 Z M 167 10 L 166 15 L 168 15 L 168 12 L 170 11 L 167 10 Z M 593 11 L 593 17 L 594 12 L 597 13 L 596 13 Q 593 14 594 19 Q 595 21 599 20 Q 601 19 600 14 L 599 13 L 598 12 L 593 11 Z M 605 12 L 604 18 L 606 17 L 608 18 L 607 17 L 608 13 L 606 14 L 605 12 Z M 610 14 L 608 17 L 612 18 L 614 18 L 615 15 L 617 18 L 618 16 L 618 18 L 621 18 L 621 15 L 617 14 L 613 15 L 610 14 Z M 623 14 L 623 20 L 626 18 L 628 18 L 631 17 Q 632 20 639 18 L 640 15 L 641 18 L 641 16 L 643 15 L 643 18 L 646 18 L 646 17 Q 644 12 637 14 L 637 16 L 636 16 L 635 15 L 632 14 L 630 14 L 627 15 L 623 14 Z M 93 22 L 92 24 L 93 24 L 93 22 Z M 88 23 L 90 25 L 90 24 L 88 23 Z M 95 23 L 95 25 L 97 24 L 95 23 Z M 118 23 L 117 25 L 118 25 L 118 23 Z M 172 23 L 171 25 L 173 25 L 172 23 Z M 189 23 L 188 25 L 190 24 L 189 23 Z M 109 25 L 109 26 L 111 26 L 109 25 Z M 68 62 L 68 69 L 68 64 L 71 63 L 71 65 L 73 65 L 73 67 L 71 68 L 74 69 L 74 65 Q 73 61 68 62 Z M 81 63 L 79 65 L 81 69 L 82 67 L 81 63 Z M 84 63 L 82 65 L 83 69 L 84 69 L 84 63 Z M 132 63 L 127 69 L 132 66 L 133 68 L 133 66 L 133 64 L 132 63 Z M 70 65 L 69 67 L 71 67 L 71 66 L 70 65 Z M 94 65 Q 91 67 94 68 L 95 66 L 95 68 L 97 67 L 94 65 Z M 99 65 L 99 68 L 98 67 L 97 69 L 100 69 L 101 70 L 100 66 L 99 65 Z M 103 65 L 102 68 L 104 67 L 105 69 L 105 66 L 103 65 Z M 107 65 L 107 68 L 107 67 L 109 66 L 107 65 Z M 112 65 L 110 66 L 109 68 L 111 67 L 112 69 L 113 69 L 112 67 L 114 67 L 114 66 L 112 65 Z M 118 65 L 118 69 L 121 68 L 121 66 L 120 65 L 118 65 Z M 123 65 L 122 67 L 122 69 L 124 69 L 124 66 L 123 65 Z M 126 65 L 126 68 L 126 67 L 128 66 L 126 65 Z M 135 65 L 135 70 L 138 68 L 141 69 L 142 67 L 140 65 L 140 67 L 139 67 Q 137 65 136 68 L 135 67 L 137 66 L 135 65 Z M 144 65 L 143 68 L 147 68 L 147 66 L 144 65 Z M 150 65 L 148 68 L 151 69 L 150 68 L 152 67 L 150 65 Z M 153 65 L 153 68 L 155 67 L 156 69 L 156 66 L 155 66 L 153 65 Z M 158 65 L 157 69 L 160 67 L 160 69 L 162 68 L 164 69 L 163 68 L 165 67 L 165 65 L 162 66 L 160 65 L 158 65 Z M 628 65 Q 624 66 625 71 Q 626 73 631 72 L 632 73 L 631 70 L 628 71 L 626 69 L 630 67 L 632 70 L 632 68 L 628 65 Z M 681 65 L 677 68 L 678 72 L 684 73 L 685 73 L 684 68 L 681 65 Z M 703 65 L 699 67 L 700 68 L 705 67 L 703 65 Z M 86 66 L 85 68 L 88 69 L 86 66 Z M 91 66 L 89 69 L 91 68 L 91 66 Z M 298 66 L 298 68 L 297 70 L 300 70 L 300 69 L 300 67 L 298 66 Z M 309 66 L 309 72 L 309 71 L 311 70 Q 314 69 311 67 L 310 69 L 309 69 L 310 67 L 309 66 Z M 131 67 L 130 69 L 132 69 L 131 67 Z M 296 67 L 295 69 L 297 68 L 296 67 Z M 706 67 L 705 71 L 703 72 L 699 70 L 702 73 Q 706 74 707 71 L 706 67 Z M 71 68 L 69 69 L 69 70 L 73 70 L 71 68 Z M 302 68 L 301 71 L 302 71 L 302 68 Z M 314 68 L 315 70 L 315 69 L 314 68 Z M 317 68 L 317 71 L 317 72 L 319 72 L 318 69 L 317 68 Z M 320 68 L 320 73 L 322 72 L 320 68 Z M 325 68 L 326 72 L 326 69 L 325 68 Z M 328 68 L 328 72 L 330 72 L 328 68 Z M 332 68 L 333 72 L 333 69 L 332 68 Z M 336 68 L 336 70 L 335 70 L 334 72 L 337 72 L 337 69 L 336 68 Z M 339 68 L 340 72 L 341 69 L 339 68 Z M 628 68 Q 628 72 630 69 L 628 68 Z M 313 69 L 313 72 L 314 72 L 313 69 Z M 299 70 L 297 71 L 297 72 L 301 72 L 299 70 Z M 153 96 L 132 102 L 119 110 L 102 129 L 95 144 L 92 159 Q 92 193 109 210 Q 119 220 133 227 L 145 231 L 157 232 L 158 233 Q 188 232 205 217 Q 214 209 220 199 L 226 186 L 229 171 L 229 158 L 226 144 Q 222 131 214 122 Q 204 109 190 102 L 169 96 L 153 96 Z M 357 107 L 354 113 L 355 114 L 356 111 L 358 110 L 358 112 L 360 111 L 358 109 L 357 107 Z M 424 107 L 423 114 Q 424 116 430 115 Q 433 113 431 108 L 424 107 Z M 303 108 L 301 110 L 302 112 L 304 109 L 304 112 L 302 113 Q 303 115 307 114 Q 310 113 309 110 Q 308 107 303 108 Z M 314 108 L 313 113 L 315 113 L 315 110 L 317 109 L 318 113 L 318 109 L 314 108 Z M 365 108 L 365 114 L 365 113 L 368 111 L 368 113 L 370 114 Q 374 113 376 115 L 376 114 L 378 114 L 380 113 L 384 114 L 384 113 Q 382 111 385 110 L 385 113 L 387 113 L 386 112 L 390 114 L 392 112 L 393 115 L 396 113 L 395 109 L 392 111 L 391 109 L 389 110 L 387 109 L 383 110 L 378 109 L 377 112 L 376 111 L 374 109 L 373 111 L 371 109 L 369 110 L 365 108 Z M 400 108 L 399 111 L 401 112 L 399 113 L 400 114 L 403 113 L 403 112 L 400 110 L 403 109 L 406 114 L 408 111 L 408 113 L 412 114 L 413 112 L 411 110 L 411 112 L 410 112 L 409 110 L 408 110 L 408 109 L 407 108 L 406 111 L 405 110 Q 404 107 400 108 Z M 410 108 L 410 109 L 412 109 L 410 108 Z M 437 108 Q 434 109 435 113 L 439 114 L 439 113 L 437 112 L 436 111 L 439 109 L 437 108 Z M 321 109 L 319 111 L 320 115 L 323 113 L 326 114 L 326 113 L 329 114 L 331 113 L 333 114 L 337 113 Q 338 110 340 114 L 342 112 Q 340 107 338 111 L 336 110 L 336 112 L 330 109 L 328 110 L 326 109 L 324 110 L 321 109 Z M 353 109 L 351 111 L 354 112 L 354 110 L 353 109 Z M 441 109 L 441 115 L 444 113 L 446 114 L 448 113 L 450 114 L 455 112 L 456 114 L 457 112 L 460 114 L 461 112 L 462 114 L 463 112 L 467 114 L 468 112 L 473 114 L 474 112 L 473 109 L 470 111 L 469 109 L 468 111 L 467 110 L 463 111 L 462 109 L 460 110 Q 458 108 457 111 L 456 109 L 455 111 L 451 109 L 448 110 L 446 109 L 445 112 L 444 111 L 441 109 Z M 353 134 Q 341 145 333 159 L 314 197 L 315 199 L 313 201 L 310 213 L 310 215 L 308 218 L 308 223 L 305 233 L 305 241 L 303 246 L 303 282 L 305 289 L 306 303 L 309 313 L 309 315 L 319 344 L 329 364 L 341 382 L 344 383 L 350 393 L 354 396 L 645 396 L 650 389 L 652 388 L 667 367 L 668 363 L 671 360 L 678 346 L 683 331 L 686 326 L 686 322 L 688 320 L 689 313 L 689 311 L 693 298 L 694 278 L 695 277 L 694 240 L 690 220 L 690 218 Q 687 215 688 210 L 686 208 L 686 204 L 680 190 L 680 187 L 676 182 L 675 177 L 670 167 L 669 166 L 662 155 L 661 154 L 660 152 L 650 139 L 646 134 L 353 134 Z M 68 244 L 66 248 L 68 247 L 68 244 Z M 70 245 L 68 248 L 71 249 L 71 248 L 74 249 L 74 248 L 70 245 Z M 75 245 L 74 247 L 78 248 L 78 247 L 75 245 Z M 82 245 L 82 248 L 85 249 L 86 246 L 86 248 L 87 248 L 87 245 L 84 246 L 82 245 Z M 81 254 L 80 258 L 82 257 L 81 254 Z M 85 254 L 84 258 L 85 258 L 85 254 Z M 69 299 L 69 301 L 67 301 L 68 302 L 73 301 L 69 299 Z M 80 300 L 80 302 L 79 305 L 81 305 L 81 304 L 83 303 L 83 305 L 84 305 L 84 300 L 83 302 L 82 302 L 81 301 L 80 300 Z M 228 300 Q 225 301 226 305 L 229 306 L 229 305 L 227 304 L 229 301 L 228 300 Z M 94 301 L 93 305 L 95 305 L 94 304 L 95 302 L 94 301 Z M 99 301 L 99 304 L 98 304 L 97 303 L 96 303 L 97 307 L 97 306 L 100 305 L 102 305 L 105 304 L 107 305 L 109 305 L 109 303 L 108 302 L 104 302 L 103 304 L 102 303 Q 100 304 99 301 Z M 117 301 L 116 303 L 115 302 L 114 305 L 117 305 L 117 301 Z M 126 301 L 124 304 L 127 302 L 126 301 Z M 135 301 L 133 305 L 137 305 L 137 303 L 135 301 Z M 140 301 Q 135 303 139 305 L 141 304 L 140 301 Z M 147 301 L 148 305 L 148 302 L 147 301 Z M 151 301 Q 152 303 149 305 L 157 306 L 158 306 L 157 302 L 156 304 L 155 304 L 154 303 L 153 303 L 152 302 L 151 301 Z M 88 302 L 85 305 L 88 305 L 90 305 L 91 305 L 90 303 L 88 302 Z M 111 302 L 111 305 L 113 305 L 112 303 L 111 302 Z M 121 302 L 120 305 L 123 305 L 123 303 L 121 302 Z M 128 302 L 127 304 L 126 304 L 126 305 L 128 305 L 128 302 Z M 130 302 L 129 305 L 132 305 L 132 303 L 130 302 Z M 143 302 L 143 307 L 143 306 L 145 305 Q 148 304 145 302 L 144 304 L 143 302 Z M 159 302 L 158 305 L 160 305 L 162 305 L 162 303 L 161 302 L 159 302 Z M 164 302 L 163 305 L 165 304 L 167 305 L 167 303 L 166 302 L 164 302 Z M 231 302 L 230 305 L 233 305 L 233 307 L 235 307 L 236 305 L 239 306 L 242 305 L 243 303 L 244 305 L 245 303 L 245 305 Q 247 308 248 305 L 247 302 Q 242 301 241 303 Q 237 301 231 302 Z M 72 303 L 68 305 L 73 306 L 72 305 L 74 305 L 74 304 L 72 303 Z M 67 336 L 66 341 L 68 341 L 68 340 L 70 339 Q 72 344 74 341 L 73 337 L 71 338 L 70 337 L 67 336 Z M 76 337 L 75 341 L 80 341 L 79 340 L 80 338 L 76 337 Z M 82 337 L 81 341 L 83 340 Q 84 343 90 341 L 90 338 L 88 339 L 87 338 L 86 337 L 84 337 L 83 339 L 82 337 Z M 94 337 L 93 341 L 96 341 L 95 340 L 96 338 L 94 337 Z M 99 337 L 99 339 L 99 340 L 98 338 L 97 341 Q 99 344 101 340 L 103 341 L 105 341 L 105 337 L 104 339 L 99 337 Z M 107 337 Q 105 341 108 342 Q 110 341 109 338 L 107 337 Z M 112 337 L 110 341 L 113 342 L 114 340 L 115 343 L 118 341 L 117 337 L 114 338 L 112 337 Z M 120 337 L 119 341 L 121 341 L 121 338 L 120 337 Z M 123 337 L 123 339 L 122 341 L 125 341 L 125 338 L 123 337 Z M 127 337 L 126 341 L 130 342 L 131 342 L 130 339 L 129 338 L 128 340 L 127 337 Z M 132 337 L 131 341 L 133 340 L 137 341 L 139 341 L 139 337 L 136 338 L 135 340 L 134 337 L 133 339 L 132 337 Z M 203 348 L 203 349 L 247 349 L 203 348 Z M 196 353 L 195 379 L 196 379 L 196 353 Z M 255 355 L 254 377 L 255 377 L 255 355 Z M 225 357 L 224 359 L 226 359 L 225 357 Z M 227 359 L 227 361 L 229 361 L 227 359 Z M 226 361 L 224 364 L 226 363 L 226 361 Z M 86 369 L 85 374 L 88 372 L 89 374 L 89 370 L 87 371 L 86 369 Z M 151 369 L 151 374 L 151 371 L 153 370 L 154 374 L 154 370 L 151 369 Z M 211 369 L 211 372 L 211 371 L 212 371 L 212 373 L 210 372 L 209 375 L 211 374 L 213 375 L 213 370 L 211 369 Z M 91 371 L 91 374 L 93 374 L 92 372 L 91 371 Z M 94 371 L 94 373 L 96 372 L 94 371 Z M 98 371 L 96 373 L 100 374 L 100 372 L 98 371 Z M 102 371 L 101 374 L 107 374 L 107 372 L 106 371 L 106 373 L 104 373 L 103 372 L 102 371 Z M 157 371 L 157 374 L 161 374 L 161 372 L 160 371 L 160 373 L 157 371 Z M 163 371 L 162 374 L 168 374 L 168 372 L 167 371 L 167 373 L 165 373 L 164 372 L 163 371 Z M 170 371 L 170 374 L 171 372 L 170 371 Z M 215 371 L 214 374 L 216 374 L 215 373 L 217 372 L 215 371 Z M 219 371 L 218 374 L 219 374 L 219 371 Z M 222 371 L 222 373 L 220 373 L 221 374 L 224 374 L 223 372 L 222 371 Z M 225 371 L 224 373 L 226 372 L 225 371 Z M 228 371 L 228 374 L 231 373 L 237 374 L 237 372 L 236 371 L 236 373 L 234 371 L 231 372 L 228 371 Z M 239 371 L 238 374 L 241 374 L 241 372 L 239 371 Z M 200 382 L 200 383 L 250 383 L 200 382 Z M 706 390 L 705 392 L 708 393 L 709 391 L 708 391 L 706 390 Z M 74 391 L 73 393 L 75 394 L 74 391 Z M 92 391 L 91 393 L 93 394 L 92 391 Z M 121 391 L 120 394 L 121 394 L 121 391 Z M 164 391 L 163 394 L 164 394 L 164 391 Z M 98 392 L 97 394 L 99 393 L 98 392 Z M 101 392 L 101 393 L 103 393 L 101 392 Z M 110 392 L 109 394 L 110 394 L 110 392 Z M 117 392 L 117 394 L 119 393 L 117 392 Z M 124 392 L 125 394 L 125 393 L 124 392 Z M 160 392 L 160 394 L 162 393 L 160 392 Z M 167 392 L 168 394 L 168 393 L 167 392 Z M 203 392 L 202 396 L 204 395 L 203 392 Z M 142 393 L 141 395 L 142 395 L 142 393 Z M 113 394 L 113 395 L 115 395 L 113 394 Z M 153 394 L 153 395 L 155 395 L 153 394 Z M 107 399 L 105 402 L 108 401 L 107 399 Z M 110 400 L 110 404 L 110 402 L 112 401 L 110 400 Z M 79 401 L 78 403 L 80 403 L 80 402 L 79 401 Z M 118 401 L 117 403 L 119 403 L 119 402 L 118 401 Z M 302 406 L 299 412 L 300 413 L 303 412 L 304 413 L 303 407 L 302 406 Z M 306 408 L 304 411 L 307 412 L 308 409 L 309 412 L 310 409 L 306 408 Z M 312 408 L 310 411 Q 311 413 315 412 L 318 411 L 320 412 L 322 412 L 323 410 L 323 412 L 325 411 L 327 412 L 329 410 L 331 412 L 331 408 L 329 409 L 326 408 L 325 410 L 324 409 L 322 408 L 321 410 L 319 408 L 318 409 L 316 408 L 314 411 L 313 409 L 312 408 Z M 393 408 L 393 411 L 394 409 L 393 408 Z M 407 408 L 406 410 L 407 410 L 407 408 Z M 430 408 L 429 410 L 431 409 L 430 408 Z M 437 408 L 437 411 L 438 409 L 437 408 Z M 449 408 L 450 410 L 450 409 L 449 408 Z M 453 408 L 451 410 L 452 411 L 454 410 L 453 408 Z M 234 430 Q 230 431 231 438 L 234 440 L 246 440 L 247 438 L 245 439 Q 240 440 239 437 Q 238 432 242 431 L 246 432 L 247 432 L 246 430 L 234 430 Z M 87 432 L 87 436 L 86 438 L 88 438 L 90 433 L 88 434 L 87 432 Z M 119 432 L 118 434 L 117 434 L 116 437 Q 118 441 121 437 L 123 438 L 126 437 L 128 438 L 129 436 L 130 438 L 130 435 L 129 435 L 127 434 L 125 434 L 122 435 L 120 434 L 119 432 Z M 248 432 L 247 438 L 248 438 L 248 432 Z M 91 434 L 89 439 L 91 438 L 94 439 L 99 438 L 102 437 L 104 438 L 105 436 L 106 438 L 106 435 L 105 434 L 103 434 L 102 436 L 101 435 L 100 434 L 98 437 L 97 435 L 95 434 L 94 437 L 93 435 L 91 434 Z M 108 434 L 107 438 L 109 438 L 110 435 L 111 438 L 114 437 Q 113 433 108 434 Z M 78 437 L 76 438 L 76 439 L 80 439 L 78 437 Z " /><path fill="rgb(255,255,255)" stroke="rgb(255,255,255)" stroke-width="0" d="M 61.5 10 Q 67.25 9.25 68 13.5 Q 68.5 17.5 65.5 18 L 64 18.5 L 63.5 20 Q 58.75 20.75 58 17.5 Q 57.25 12.75 59.5 11 L 61.5 10 Z M 63 11 L 61 12 Q 58 13 59 17 L 63 19 L 63 18 L 67 16 L 67 15 L 65 15 L 66 13 L 65 12 L 64 14 L 63 11 Z " /><path fill="rgb(255,255,255)" stroke="rgb(255,255,255)" stroke-width="0" d="M 111.5 11 L 112 12.5 L 110.5 13 L 111.5 11 Z " /><path fill="rgb(255,255,255)" stroke="rgb(255,255,255)" stroke-width="0" d="M 666.5 12 L 667.5 15 L 669 14.5 Q 667 19 665 15.5 L 666.5 12 Z " /><path fill="rgb(255,255,255)" stroke="rgb(255,255,255)" stroke-width="0" d="M 676.5 12 L 679 13.5 L 676 14.5 L 676.5 17 L 679 16.5 L 680.5 14 L 683 14.5 L 682 16.5 L 683.5 16 L 685 15.5 L 684.5 14 L 686.5 15 L 687.5 14 L 690 15.5 L 690.5 14 L 691.5 16 L 693 15.5 L 692.5 14 L 695 14.5 L 694.5 18 Q 689.2 18.8 687.5 16 L 686.5 18 L 675 17.5 L 674 14.5 L 676.5 12 Z " /><path fill="rgb(255,255,255)" stroke="rgb(255,255,255)" stroke-width="0" d="M 706.5 12 L 708 12.5 L 707 14.5 Q 710.75 16.25 707.5 18 L 705 17.5 L 707 16.5 L 705 13.5 L 706.5 12 Z " /><path fill="rgb(255,255,255)" stroke="rgb(255,255,255)" stroke-width="0" d="M 716.5 12 L 718 12.5 L 717.5 14 L 715 14.5 L 716.5 17 L 717.5 15 Q 720.5 16.5 717.5 18 L 714 16.5 L 713.5 14 L 711.5 18 L 710 17.5 L 709 13.5 L 711 14.5 L 711.5 16 L 712.5 13 L 716.5 12 Z " /><path fill="rgb(255,255,255)" stroke="rgb(255,255,255)" stroke-width="0" d="M 596.5 14 L 599 14.5 L 598.5 18 L 595 17.5 L 596.5 14 Z " /><path fill="rgb(255,255,255)" stroke="rgb(255,255,255)" stroke-width="0" d="M 696.5 14 Q 701.62 13.37 703 16.5 L 699.5 18 L 698.5 15 L 697.5 18 L 696 17.5 L 696.5 14 Z " /><path fill="rgb(255,255,255)" stroke="rgb(255,255,255)" stroke-width="0" d="M 663.5 16 L 664.5 18 Q 669.25 19.25 670.5 17 L 669.5 19 Q 664.25 20.25 663 17.5 L 663.5 16 Z " /><path fill="rgb(255,255,255)" stroke="rgb(255,255,255)" stroke-width="0" d="M 679.5 67 L 683 68.5 L 681.5 71 L 679 70.5 L 678 68.5 L 679.5 67 Z M 680 68 L 682 70 L 682 69 L 680 68 Z " /><path fill="rgb(255,255,255)" stroke="rgb(255,255,255)" stroke-width="0" d="M 427.5 108 L 430 108.5 L 429.5 110 L 427 109.5 L 427.5 108 Z " /><path fill="rgb(255,255,255)" stroke="rgb(255,255,255)" stroke-width="0" d="M 306.5 109 Q 309.5 110.5 306.5 112 L 306.5 109 Z " /><path fill="rgb(255,255,255)" stroke="rgb(255,255,255)" stroke-width="0" d="M 424.5 110 Q 427.5 111.5 424.5 113 L 424.5 110 Z " /><path fill="rgb(255,255,255)" stroke="rgb(255,255,255)" stroke-width="0" d="M 428.5 111 L 429.5 113 L 427 112.5 L 428.5 111 Z " /><path fill="rgb(255,255,255)" stroke="rgb(255,255,255)" stroke-width="0" d="M 118.5 135 L 147.5 135 Q 149.71 139.29 157.5 138 L 164 143.5 L 152.5 144 L 151 145.5 L 152.5 148 L 164 148.5 L 156.5 154 Q 152 153 151 155.5 L 151 166.5 L 152.5 168 L 182.5 154 L 198.5 154 L 198.5 155 L 185 161.5 L 210 191.5 L 166.5 192 L 167.5 190 L 179 181.5 L 171.5 173 L 152 181.5 L 150.5 192 L 112 191.5 L 128 181.5 L 128 144.5 L 124.5 141 L 118.5 135 Z " /><path fill="rgb(255,255,255)" stroke="rgb(255,255,255)" stroke-width="0" d="M 189.5 137 L 197 137.5 L 195.5 139 Q 190.06 138.06 188 140.5 Q 189.25 143.25 190.5 141 L 195.5 140 L 210.5 140 L 211 141.5 Q 194.24 140.24 185.5 147 L 170.5 147 L 164 145.5 L 175.5 144 Q 180.46 138.46 189.5 137 Z " /><path fill="rgb(255,255,255)" stroke="rgb(255,255,255)" stroke-width="0" d="M 378.5 180 L 458.5 180 L 464 182.5 L 464.5 184 L 473.5 188 L 487.5 188 L 509 203.5 L 507.5 206 L 474 206.5 L 473 213.5 L 474.5 216 L 506.5 216 L 508 217.5 L 502.5 224 L 500.5 224 L 487.5 234 L 475.5 234 L 473 236.5 L 473 268.5 L 472 269.5 L 474.5 275 L 477.5 275 L 479.5 273 L 496.5 265 L 501.5 264 L 513.5 257 L 529.5 251 L 537.5 246 L 547.5 243 L 564.5 234 L 606.5 234 Q 611.5 236.5 606.5 239 L 575.5 252 L 570 256.5 Q 575.6 267.4 585 274.5 L 585 276.5 L 632 329.5 L 641 340.5 L 641 342.5 L 639.5 344 L 516.5 344 L 515 341.5 L 550 316.5 L 551 314.5 L 550 311.5 L 529.5 289 L 524.5 290 L 507.5 299 Q 495.65 301.65 487.5 308 L 482.5 309 L 474 314.5 L 473 316.5 L 473 338.5 L 472 339.5 L 473 341.5 L 469.5 344 L 362.5 344 L 361 342.5 L 364.5 339 L 405 313.5 L 406 310.5 L 406 208.5 L 402.5 203 L 400.5 203 L 389 193.5 L 388.5 192 L 376 181.5 L 378.5 180 Z " /><path fill="rgb(255,255,255)" stroke="rgb(255,255,255)" stroke-width="0" d="M 578.5 187 L 602.5 187 L 606 188.5 L 604.5 190 L 596.5 190 L 587.5 193 L 583.5 193 L 579 196.5 L 579.5 198 L 594.5 197 L 596.5 195 L 639.5 195 Q 641.5 198 647.5 197 L 649 196.5 L 648.5 198 Q 642 196.5 640.5 200 L 636.5 199 L 634.5 199 Q 627.4 201.4 616.5 200 L 615.5 201 L 602.5 201 L 599.5 203 L 585.5 206 L 573.5 213 L 566.5 215 L 564.5 214 L 560.5 216 L 542.5 216 L 538.5 214 L 536.5 214 L 512.5 213 L 510 211.5 L 511.5 210 Q 517.83 210.83 520.5 208 L 529.5 208 L 544.5 205 L 550.5 202 L 560.5 192 L 578.5 187 Z " /><path fill="rgb(255,255,255)" stroke="rgb(255,255,255)" stroke-width="0" d="M 301.5 408 L 302 410.5 L 301 410.5 L 301.5 408 Z " /></svg>